PathFileType	4	(X/Y/Z)	C:/Users/beibeiliu/ov580/test_trc/capture2\sequence.26_training_dense_left.trc
DataRate	CameraRate	NumFrames	NumMarkers	Units	OrigDataRate	OrigDataStartFrame	OrigNumFrames
120	120	22	19	mm	120	96	383
Frame#	Time	ThumbCMC			ThumbMCP			ThumbIP			ThumbTip			IndexMCP			IndexPIP			IndexTip			MiddleMCP			MiddlePIP			MiddleTip			RingMCP			RingPIP			RingTip			PinkyMCP			PinkyPIP			PinkyTip			BackHand1			BackHand2			BackHand3	
		X0	Y0	Z0	X1	Y1	Z1	X2	Y2	Z2	X3	Y3	Z3	X4	Y4	Z4	X5	Y5	Z5	X6	Y6	Z6	X7	Y7	Z7	X8	Y8	Z8	X9	Y9	Z9	X10	Y10	Z10	X11	Y11	Z11	X12	Y12	Z12	X13	Y13	Z13	X14	Y14	Z14	X15	Y15	Z15	X16	Y16	Z16	X17	Y17	Z17	X18	Y18	Z18	
95	0.791667	-96.3385	50.851	31.2912	-97.1305	38.8393	-2.22097	-104.277	51.0736	-30.1176	-118.513	61.3809	-46.7168	-78.5708	107.78	-15.4084	-73.0575	120.669	-34.3558	-66.2808	137.372	-52.1003	-107.557	120.858	-21.5967	-106.218	128.723	-43.1515	-113.215	138.094	-74.064	-132.902	102.157	-30.0987	-137.455	78.475	-44.3639	-134.734	52.8267	-22.1739	-151.619	95.3474	-18.3664	-147.834	62.262	-23.0105	-132.902	55.0994	2.84221	-130.009	106.46	27.3181	-132.534	89.3179	55.4747	-98.3976	88.326	41.3296	
96	0.8	-95.2267	50.3834	29.0921	-98.2406	42.6756	-3.76452	-103.679	49.3983	-34.967	-121.162	65.0168	-45.0489	-79.0359	105.377	-14.0855	-68.2486	118.175	-33.6166	-64.1022	136.951	-51.1756	-107.465	117.758	-19.4237	-108.865	130.139	-45.9385	-111.275	137.974	-71.5317	-128.746	101.981	-30.0319	-135.627	75.0145	-44.5157	-134.55	52.5186	-20.4934	-148.065	93.6671	-21.5913	-146.802	64.3046	-23.6831	-137.555	54.3281	4.09194	-130.156	105.643	27.7179	-133.412	93.7905	55.215	-98.9678	84.8064	42.234	
97	0.808333	-96.3088	49.3264	29.4799	-98.0912	39.9899	-3.89933	-105.07	48.3266	-29.2948	-122.672	66.6416	-46.1198	-78.0751	103.018	-11.441	-67.3602	118.368	-34.5681	-61.3481	135.274	-51.276	-108.094	118.323	-19.6354	-106.319	130.107	-47.463	-108.079	138.16	-73.4992	-129.083	101.878	-29.3728	-139.169	75.8523	-43.6177	-136.112	51.7393	-19.6175	-148.102	94.7073	-20.4855	-145.925	64.271	-24.1895	-135.903	53.4469	5.11322	-125.618	105.023	28.4957	-134.074	89.1414	57.842	-100.615	87.0366	39.3276	
98	0.816667	-92.8695	46.613	29.6509	-96.0425	36.1995	-5.27271	-103.884	48.7692	-34.1092	-121.459	65.3745	-42.9511	-80.1777	103.368	-12.8927	-68.8089	117.18	-35.1811	-62.8543	133.071	-49.349	-105.847	117.627	-20.4803	-104.662	127.224	-43.788	-108.402	138.69	-75.243	-130.313	101.542	-29.1723	-139.479	77.3979	-43.4212	-135.111	52.1292	-22.0936	-147.366	94.4139	-19.3745	-145.806	65.4652	-23.997	-135.284	53.3275	5.87511	-126.802	104.277	27.6964	-133.976	88.8745	57.7144	-98.8058	82.2571	42.6677	
99	0.825	-95.2034	49.5724	27.1048	-97.1703	39.5515	-6.19648	-102.505	45.6274	-32.5754	-120.031	62.6878	-45.2262	-79.1647	104.476	-15.3807	-70.6286	114.91	-32.3818	-63.1401	132.404	-50.47	-105.651	116.934	-19.3682	-104.266	128.051	-47.0885	-106.852	138.54	-75.6974	-130.884	100.995	-30.6105	-135.423	75.631	-43.8882	-131.946	51.1404	-21.6165	-145.347	96.0614	-17.3719	-147.377	66.9585	-25.3122	-135.821	54.6349	1.33411	-127.859	105.071	30.0223	-131.083	89.779	55.4713	-100.13	85.1393	44.2633	
100	0.833333	-96.8854	46.3748	31.318	-96.5386	37.7875	-6.62626	-102.785	45.3195	-31.5281	-118.586	62.4876	-47.3659	-78.3618	101.741	-14.3007	-71.2407	113.385	-33.3496	-63.813	132.908	-52.4951	-104.779	119.144	-23.4194	-104.567	127.736	-45.3106	-104.819	137.374	-75.1758	-128.159	101.721	-27.7742	-134.457	76.5886	-44.3771	-133.431	49.6744	-20.1392	-149.354	95.1164	-19.6548	-146.079	66.7913	-25.9262	-135.117	53.4292	1.81805	-127.102	104.891	28.6602	-129.901	87.063	58.1008	-98.0568	82.6165	41.1916	
101	0.841667	-93.884	47.9193	26.6156	-99.1878	39.3113	-3.27096	-104.931	48.217	-29.6787	-118.887	63.4369	-45.2208	-77.2685	101.233	-15.2654	-69.6319	111.043	-34.079	-63.8602	132.485	-54.2851	-103.832	115.364	-20.3483	-105.698	128.176	-48.5359	-108.592	137.765	-72.3372	-127.123	101.091	-29.4596	-137.09	72.6337	-43.9788	-134.383	49.5343	-21.83	-148.213	94.9274	-19.9074	-145.603	67.3869	-26.2097	-135.437	53.4361	4.15566	-125.609	104.585	29.4987	-131.303	89.8103	53.7832	-95.7873	85.5565	39.2336	
102	0.85	-93.1659	47.0659	26.9414	-97.124	39.6284	-6.90723	-104.541	47.2028	-30.6796	-119.901	63.7775	-45.6402	-74.2988	101.216	-17.8761	-67.7708	110.558	-36.6208	-64.928	127.055	-53.2546	-104.507	117.202	-22.7139	-100.419	125.683	-47.0291	-105.236	137.265	-72.692	-129.716	100.903	-28.8691	-134.538	73.1702	-44.684	-135.811	48.9196	-21.9942	-145.375	94.3546	-18.3189	-143.712	64.6604	-24.6024	-136.389	53.1466	5.34468	-126.535	104.598	27.7768	-127.42	88.9621	53.5051	-98.4658	86.2652	39.2222	
103	0.858333	-97.2793	47.6936	27.9279	-98.9115	38.6229	-3.36467	-103.65	44.1263	-31.6445	-119.33	62.8643	-46.8345	-77.4362	99.9914	-17.906	-69.2939	109.383	-39.0657	-62.2565	123.893	-57.8311	-103.366	114.524	-23.3802	-103.404	125.033	-49.3748	-104.051	133.334	-71.7119	-126.452	98.7509	-30.1268	-134.157	73.2229	-45.444	-134.647	47.4828	-21.2959	-145.751	92.5859	-21.086	-143.805	62.9396	-24.5597	-133.757	50.9687	5.06628	-126.266	103.003	26.3362	-128.347	89.3513	53.1115	-99.5012	84.8583	38.8715	
104	0.866667	-97.1068	45.6937	30.5558	-100.136	38.2518	-3.91819	-105.014	42.0502	-31.985	-121.173	61.97	-47.9997	-76.982	96.4638	-20.0227	-70.8442	105.822	-43.5426	-65.0339	120.461	-63.2504	-105.671	112.058	-24.911	-104.01	120.728	-49.5143	-105.191	130.9	-78.5218	-129.458	96.1701	-33.7815	-135.568	71.724	-46.0679	-134.141	45.2752	-21.7581	-146.487	91.6788	-18.1029	-145.764	61.6029	-24.4965	-137.362	48.4786	4.69278	-126.928	104.475	26.3609	-131.316	90.4841	57.9481	-97.512	80.9405	39.834	
105	0.875	-96.864	47.7751	28.0117	-101.458	34.807	-2.58787	-108.936	43.1657	-29.3625	-120.882	53.9735	-44.1733	-76.7931	90.9836	-22.9973	-74.2789	98.6886	-44.3951	-64.6455	111.076	-68.1084	-101.73	107.124	-27.9893	-104.366	114.51	-51.4856	-105.19	123.795	-79.7128	-129.204	93.7957	-29.3992	-136.245	63.7557	-44.6139	-135.496	40.7779	-17.5844	-150.475	87.6236	-20.3833	-149.407	58.0382	-22.7753	-134.625	48.4223	2.9256	-123.081	101.168	25.2951	-127.281	89.9318	55.9455	-100.098	84.2795	34.9846	
106	0.883333	-94.9046	42.7005	29.056	-102.13	28.6019	-1.71746	-111.325	37.8611	-30.0179	-127.822	55.1858	-45.3808	-78.0449	86.2888	-29.6865	-73.4653	89.7704	-50.8404	-69.5894	98.174	-73.4156	-104.725	104.325	-34.3281	-106.707	107.256	-56.6661	-110.947	116.165	-85.3279	-130.634	88.1827	-31.6316	-142.737	60.5286	-41.903	-141.647	38.8989	-16.5423	-148.403	81.367	-22.8512	-153.076	53.373	-17.9966	-136.655	47.4533	13.0199	-125.765	101.561	20.8684	-127.527	90.7526	54.647	-96.0183	80.7707	35.936	
107	0.891667	-99.1421	41.1197	31.5861	-106.591	28.4407	-2.21991	-115.419	31.9851	-25.6132	-130.183	47.9276	-43.7067	-79.9861	74.2043	-30.1538	-78.0998	75.0612	-54.826	-76.2565	80.3307	-79.6577	-106.594	94.1117	-38.9263	-108.534	94.9177	-63.8635	-113.81	98.8618	-87.2991	-135.002	79.6459	-34.0247	-149.235	52.9585	-38.8764	-142.657	33.139	-10.3616	-150.586	77.65	-21.9499	-153.45	50.5845	-14.5528	-138.301	45.6644	13.871	-124.687	100.63	18.5372	-124.953	91.7949	51.7981	-94.3723	80.867	32.6166	
108	0.9	-98.7794	39.217	32.559	-109.419	25.6771	2.66649	-117.713	25.5176	-24.155	-132.472	38.9235	-39.3323	-81.8942	65.3798	-33.5023	-80.5308	63.0234	-57.7296	-76.7086	62.1498	-84.571	-105.72	83.9447	-42.905	-111.425	82.7593	-68.457	-114.967	83.1873	-94.4472	-138.138	70.3724	-36.6884	-151.553	45.0498	-35.0397	-145.264	30.81	-3.37092	-152.64	71.5339	-20.561	-156.357	44.3335	-7.30165	-140.544	41.2229	17.0398	-120.559	97.089	15.0787	-120.721	93.5632	46.644	-95.9176	77.5096	28.1975	
109	0.908333	-98.7456	39.7338	30.5834	-107.593	18.6643	4.26233	-120.077	21.2347	-20.1955	-135.975	36.0872	-38.1223	-86.0515	61.1645	-37.1045	-83.6231	55.7168	-56.8204	-81.7956	53.2805	-81.5034	-109.043	77.9188	-39.78	-113.493	75.3868	-68.135	-121.201	74.6091	-92.0224	-138.385	65.4977	-34.9927	-151.443	36.6994	-29.1308	-148.718	27.9059	-0.333786	-155.521	66.2304	-20.2682	-154.08	40.557	-5.86325	-142.356	40.5919	23.5559	-123.142	95.1926	15.8268	-119.943	94.124	47.1007	-94.0966	77.1183	29.879	
110	0.916667	-97.1384	36.7786	36.5926	-108.248	15.7929	5.95646	-120.817	16.9013	-17.8702	-136.623	31.5615	-31.5593	-86.7557	55.546	-35.3341	-87.288	48.8916	-60.4673	-84.8729	45.2064	-81.134	-110.475	71.0038	-43.5123	-117.656	67.5981	-68.1124	-122.201	63.5425	-97.1574	-138.018	59.5076	-33.4926	-152.153	32.4519	-27.6779	-148.995	24.2369	5.16836	-153.476	62.1072	-18.1812	-155.889	37.978	-3.18919	-141.875	38.9761	23.0164	-124.565	93.2202	14.0316	-122.101	94.14	45.7852	-93.2811	75.7879	28.7678	
111	0.925	-96.7249	37.8569	37.613	-107.559	14.6922	16.514	-118.495	10.8603	-10.2582	-135.39	20.2222	-28.9634	-87.3018	49.851	-33.9266	-87.7625	42.5148	-56.1339	-88.3064	35.1973	-82.2783	-110.543	65.1425	-43.2014	-120.023	59.7072	-64.4372	-126.474	54.0066	-93.4757	-141.513	54.2812	-30.8766	-154.165	27.1177	-23.6816	-147.937	20.681	8.5378	-156.979	60.5108	-15.79	-159.536	33.5917	-0.158057	-141.328	36.5133	31.5826	-123.389	88.8095	8.63011	-120.827	92.3926	43.8429	-97.2209	76.3558	29.3967	
112	0.933333	-93.7525	37.4333	41.902	-106.049	12.7324	18.0738	-117.75	7.28863	-5.60145	-136.407	14.111	-25.2922	-87.1456	45.7177	-31.4227	-85.217	33.3783	-55.2418	-87.5615	26.5623	-81.0506	-115.949	62.2649	-38.846	-117.794	51.4608	-61.8231	-125.46	43.6179	-87.5648	-141.585	47.284	-29.6299	-151.865	21.2687	-20.2064	-144.02	16.3092	11.6272	-155.93	50.3216	-13.572	-155.738	29.8463	1.81969	-139.007	34.6643	31.2955	-126.583	88.1255	12.2153	-122.142	92.0997	40.7445	-95.9174	76.8513	26.4785	
113	0.941667	-92.1004	38.3403	40.4676	-102.679	13.1618	24.1368	-114.892	2.28363	-1.32259	-134.519	8.7712	-21.6899	-87.8939	43.2932	-29.3499	-86.1423	30.0249	-54.4149	-86.1682	21.3623	-77.4671	-118.245	55.2059	-42.6335	-118.916	44.3332	-60.4512	-129.563	33.1744	-89.7658	-140.185	40.083	-27.7326	-147.225	15.3489	-15.5157	-140.775	14.5896	20.342	-156.069	47.5672	-11.0848	-154.806	23.676	9.97329	-137.998	33.3186	37.0204	-124.475	84.1697	8.39131	-126.527	94.4499	40.6668	-96.1986	76.6636	28.6302	
114	0.95	-93.3126	44.2099	45.0701	-101.734	14.1506	23.2214	-112.831	2.45835	0.270117	-131.281	5.69624	-14.197	-87.1193	41.8816	-29.2867	-85.7373	26.3097	-50.9054	-89.0117	19.029	-72.0311	-114.785	49.2721	-38.3816	-123.73	35.0617	-62.045	-126.85	24.7549	-81.5433	-142.662	33.6679	-25.0701	-145.813	10.3032	-10.8487	-137.361	10.6755	22.1154	-153.966	43.4995	-9.34073	-150.815	19.5615	9.35636	-138.095	29.9557	37.9217	-130.379	82.7547	11.6814	-130.45	92.3932	36.4094	-100.332	79.9846	26.8642	
115	0.958333	-93.6976	45.8527	42.3016	-98.9943	16.6229	29.6153	-109.619	-0.539776	3.73097	-128.627	2.16855	-12.301	-88.1894	40.4131	-27.9112	-85.8687	23.4178	-50.3069	-86.1658	13.3554	-68.4202	-120.807	45.8388	-38.422	-127.961	29.2225	-59.7987	-129.876	16.0132	-78.348	-139.086	32.2849	-20.6546	-142.147	3.39339	-1.63451	-132.351	11.2547	26.7688	-155.998	34.0228	-7.33729	-152.134	16.4926	15.3995	-132.226	29.8129	38.4939	-133.67	79.6388	8.15902	-130.085	91.9716	36.1503	-98.5126	77.1873	24.4725	
116	0.966667	-92.6748	48.9661	45.2276	-96.9297	16.1205	26.6829	-105.261	0.00014282	8.89336	-127.927	1.83581	-9.10678	-92.2019	38.9039	-27.3734	-90.6493	23.7577	-46.6332	-89.0978	8.52283	-68.3867	-122.655	43.1475	-35.6894	-125.384	24.392	-56.6466	-134.824	7.1467	-76.2516	-142.017	27.7712	-17.8468	-139.596	0.738991	1.63099	-132.066	10.5133	31.7104	-154.109	29.5783	-4.25508	-150.847	12.6393	18.4258	-133.697	28.8528	42.6739	-133.203	78.4487	6.65085	-136.465	92.8999	34.7263	-102.009	80.8262	24.6682	
